<svg version="1.1" id="Laag_1" xmlns="http://www.w3.org/2000/svg" x="0" y="0" viewBox="0 0 730.42 218.46" style="enable-background:new 0 0 730.42 218.46" xml:space="preserve"><style>.st0{fill:#c8734b}.st1{fill:#ffa564}</style><path class="st0" d="M124.32 78.66V65.29H66.13v16.99h29.4l-30.24 34.81v13.49h60.23v-17.1H94.08zM191.66 68.47c-5.62-2.85-11.97-4.28-19.04-4.28s-13.39 1.43-18.98 4.28c-5.58 2.85-9.96 6.85-13.13 11.99-3.17 5.14-4.76 10.92-4.76 17.35 0 6.51 1.59 12.33 4.76 17.47 3.17 5.14 7.57 9.16 13.19 12.05 5.62 2.89 11.93 4.34 18.91 4.34 7.07 0 13.41-1.45 19.04-4.34 5.62-2.89 10-6.9 13.14-12.05 3.13-5.14 4.7-10.97 4.7-17.47 0-6.51-1.57-12.31-4.7-17.41s-7.51-9.07-13.13-11.93zm-9.16 40.85c-2.57 2.77-5.86 4.16-9.88 4.16-4.02 0-7.31-1.39-9.88-4.16-2.57-2.77-3.85-6.61-3.85-11.51 0-4.82 1.29-8.59 3.85-11.33 2.57-2.73 5.86-4.1 9.88-4.1 4.02 0 7.31 1.37 9.88 4.1 2.57 2.73 3.85 6.51 3.85 11.33 0 4.9-1.28 8.74-3.85 11.51zM581.68 79.56c-3.14-5.02-7.33-8.84-12.59-11.45-5.27-2.61-11.07-3.92-17.41-3.92-6.83 0-12.99 1.45-18.5 4.34-5.5 2.89-9.82 6.89-12.95 11.99-3.13 5.1-4.7 10.86-4.7 17.29 0 6.51 1.58 12.33 4.76 17.47 3.17 5.14 7.65 9.16 13.44 12.05 5.78 2.89 12.49 4.34 20.12 4.34 12.29 0 21.52-3.53 27.71-10.6l-11.93-12.53c-2.33 2.01-4.64 3.46-6.93 4.34-2.29.89-5 1.33-8.14 1.33-7.39 0-12.33-2.61-14.82-7.83l46.63-8.91c0-6.93-1.56-12.89-4.69-17.91zm-43.74 15.12c.32-4.58 1.73-8.09 4.22-10.54 2.49-2.45 5.7-3.68 9.64-3.68 3.13 0 5.82.82 8.07 2.47 2.25 1.65 3.78 3.84 4.58 6.57l-26.51 5.18zM641.46 112.87c-2.29.89-5 1.33-8.14 1.33-7.39 0-12.33-2.61-14.82-7.83l46.63-8.91c0-6.91-1.57-12.87-4.7-17.89-3.14-5.02-7.33-8.84-12.59-11.45-5.27-2.61-11.07-3.92-17.41-3.92-6.83 0-12.99 1.45-18.5 4.34-5.5 2.89-9.82 6.89-12.95 11.99-3.13 5.1-4.7 10.86-4.7 17.29 0 6.51 1.58 12.33 4.76 17.47s7.65 9.16 13.44 12.05c5.78 2.89 12.49 4.34 20.12 4.34 12.29 0 21.52-3.53 27.71-10.6l-11.93-12.53c-2.32 1.99-4.63 3.44-6.92 4.32zm-20.54-28.73c2.49-2.45 5.7-3.68 9.64-3.68 3.13 0 5.82.82 8.07 2.47 2.25 1.65 3.78 3.84 4.58 6.57l-26.5 5.18c.31-4.58 1.72-8.1 4.21-10.54zM307.33 137.39c-11.01 0-21-3.97-28.54-10.4l-8.05 17.45c10.21 7.31 22.84 11.7 36.59 11.7s26.39-4.39 36.59-11.7l-8.05-17.45c-7.53 6.43-17.53 10.4-28.54 10.4z"/><path class="st0" d="M307.33 131.67c19.13 0 34.67-14.45 35.36-32.5l.07.05V65.3h-22.02v1.4a36.868 36.868 0 0 0-13.4-2.52c-19.56 0-35.42 15.1-35.42 33.74s15.85 33.75 35.41 33.75zm0-48.73c9.19 0 16.67 6.72 16.67 14.98s-7.48 14.98-16.67 14.98-16.67-6.72-16.67-14.98 7.48-14.98 16.67-14.98zM476.01 64.19c-7.48 0-14.27 2.74-19.38 7.2-5.12-4.46-11.91-7.2-19.39-7.2-15.53 0-28.14 11.73-28.7 26.38l-.05-.04v40.04h18.74V92.23l.02.01c.19-5.1 4.59-9.19 9.99-9.19 5.53 0 10.01 4.27 10.01 9.53V130.57h18.74V92.23l.02.01c.19-5.1 4.59-9.19 9.99-9.19 5.53 0 10.01 4.27 10.01 9.54v37.99h18.74v-39c.01-15.13-12.86-27.39-28.74-27.39zM375.39 87.42c-5.81 0-10.51 4.71-10.51 10.51 0 5.81 4.71 10.51 10.51 10.51 5.81 0 10.51-4.71 10.51-10.51 0-5.81-4.71-10.51-10.51-10.51zM238.02 67.81c-5.85 2.08-17.65 8.7-17.65 31.18v31.6H243.26V93.16c.29-5.02 4.63-9.01 9.97-9.01h9.38l.34-18.86h-9.72c-3.51 0-9.37.44-15.21 2.52z"/><path class="st1" d="m608.25 153.45-9.42 21.48h-3.04l-9.45-21.48h3.31l7.74 17.64 7.79-17.64h3.07zM628.74 172.27v2.67h-17.95v-2.09l13.5-16.72H611v-2.67h17.34v2.09l-13.44 16.73h13.84zM664.75 153.45l-7.18 21.48h-3.22l-5.86-17.15-5.86 17.15h-3.28l-7.18-21.48h3.16l5.8 17.46 6.05-17.46H650l5.92 17.55 5.92-17.55h2.91z"/></svg>