<?xml version="1.0" encoding="utf-8"?>
<!-- Generator: Adobe Illustrator 26.3.1, SVG Export Plug-In . SVG Version: 6.00 Build 0)  -->
<svg version="1.1" id="Laag_1" xmlns="http://www.w3.org/2000/svg" xmlns:xlink="http://www.w3.org/1999/xlink" x="0px" y="0px"
	 viewBox="0 0 730.42 218.46" style="enable-background:new 0 0 730.42 218.46;" xml:space="preserve">
<style type="text/css">
	.st0{fill:#C8734B;}
	.st1{fill:#FFA564;}
</style>
<g>
	<polygon class="st0" points="124.32,78.66 124.32,65.29 66.13,65.29 66.13,82.28 95.53,82.28 65.29,117.09 65.29,130.58 
		125.52,130.58 125.52,113.48 94.08,113.48 	"/>
	<path class="st0" d="M191.66,68.47c-5.62-2.85-11.97-4.28-19.04-4.28s-13.39,1.43-18.98,4.28c-5.58,2.85-9.96,6.85-13.13,11.99
		c-3.17,5.14-4.76,10.92-4.76,17.35c0,6.51,1.59,12.33,4.76,17.47c3.17,5.14,7.57,9.16,13.19,12.05c5.62,2.89,11.93,4.34,18.91,4.34
		c7.07,0,13.41-1.45,19.04-4.34c5.62-2.89,10-6.9,13.14-12.05c3.13-5.14,4.7-10.97,4.7-17.47c0-6.51-1.57-12.31-4.7-17.41
		C201.66,75.3,197.28,71.33,191.66,68.47z M182.5,109.32c-2.57,2.77-5.86,4.16-9.88,4.16c-4.02,0-7.31-1.39-9.88-4.16
		c-2.57-2.77-3.85-6.61-3.85-11.51c0-4.82,1.29-8.59,3.85-11.33c2.57-2.73,5.86-4.1,9.88-4.1c4.02,0,7.31,1.37,9.88,4.1
		c2.57,2.73,3.85,6.51,3.85,11.33C186.35,102.71,185.07,106.55,182.5,109.32z"/>
	<path class="st0" d="M581.68,79.56c-3.14-5.02-7.33-8.84-12.59-11.45c-5.27-2.61-11.07-3.92-17.41-3.92
		c-6.83,0-12.99,1.45-18.5,4.34c-5.5,2.89-9.82,6.89-12.95,11.99c-3.13,5.1-4.7,10.86-4.7,17.29c0,6.51,1.58,12.33,4.76,17.47
		c3.17,5.14,7.65,9.16,13.44,12.05c5.78,2.89,12.49,4.34,20.12,4.34c12.29,0,21.52-3.53,27.71-10.6l-11.93-12.53
		c-2.33,2.01-4.64,3.46-6.93,4.34c-2.29,0.89-5,1.33-8.14,1.33c-7.39,0-12.33-2.61-14.82-7.83l46.63-8.91
		C586.37,90.54,584.81,84.58,581.68,79.56z M537.94,94.68c0.32-4.58,1.73-8.09,4.22-10.54c2.49-2.45,5.7-3.68,9.64-3.68
		c3.13,0,5.82,0.82,8.07,2.47c2.25,1.65,3.78,3.84,4.58,6.57L537.94,94.68z"/>
	<path class="st0" d="M641.46,112.87c-2.29,0.89-5,1.33-8.14,1.33c-7.39,0-12.33-2.61-14.82-7.83l46.63-8.91
		c0-6.91-1.57-12.87-4.7-17.89c-3.14-5.02-7.33-8.84-12.59-11.45c-5.27-2.61-11.07-3.92-17.41-3.92c-6.83,0-12.99,1.45-18.5,4.34
		c-5.5,2.89-9.82,6.89-12.95,11.99c-3.13,5.1-4.7,10.86-4.7,17.29c0,6.51,1.58,12.33,4.76,17.47s7.65,9.16,13.44,12.05
		c5.78,2.89,12.49,4.34,20.12,4.34c12.29,0,21.52-3.53,27.71-10.6l-11.93-12.53C646.06,110.54,643.75,111.99,641.46,112.87z
		 M620.92,84.14c2.49-2.45,5.7-3.68,9.64-3.68c3.13,0,5.82,0.82,8.07,2.47c2.25,1.65,3.78,3.84,4.58,6.57l-26.5,5.18
		C617.02,90.1,618.43,86.58,620.92,84.14z"/>
	<path class="st0" d="M307.33,137.39c-11.01,0-21-3.97-28.54-10.4l-8.05,17.45c10.21,7.31,22.84,11.7,36.59,11.7
		s26.39-4.39,36.59-11.7l-8.05-17.45C328.34,133.42,318.34,137.39,307.33,137.39z"/>
	<path class="st0" d="M307.33,131.67c19.13,0,34.67-14.45,35.36-32.5l0.07,0.05V65.3h-22.02v1.4c-4.14-1.61-8.65-2.52-13.4-2.52
		c-19.56,0-35.42,15.1-35.42,33.74S287.77,131.67,307.33,131.67z M307.33,82.94c9.19,0,16.67,6.72,16.67,14.98
		s-7.48,14.98-16.67,14.98s-16.67-6.72-16.67-14.98S298.14,82.94,307.33,82.94z"/>
	<path class="st0" d="M476.01,64.19c-7.48,0-14.27,2.74-19.38,7.2c-5.12-4.46-11.91-7.2-19.39-7.2c-15.53,0-28.14,11.73-28.7,26.38
		l-0.05-0.04v1.04v6.35v32.65h18.74V92.59v-0.36l0.02,0.01c0.19-5.1,4.59-9.19,9.99-9.19c5.53,0,10.01,4.27,10.01,9.53v5.34v32.65h0
		h18.74V100v-7.41v-0.36l0.02,0.01c0.19-5.1,4.59-9.19,9.99-9.19c5.53,0,10.01,4.27,10.01,9.54v37.99h18.74V100v-8.42
		C504.76,76.45,491.89,64.19,476.01,64.19z"/>
	<path class="st0" d="M375.39,87.42c-5.81,0-10.51,4.71-10.51,10.51c0,5.81,4.71,10.51,10.51,10.51c5.81,0,10.51-4.71,10.51-10.51
		C385.9,92.12,381.19,87.42,375.39,87.42z"/>
	<path class="st0" d="M238.02,67.81c-5.85,2.08-17.65,8.7-17.65,31.18c0,22.48,0,31.6,0,31.6h4.11h18.74h0.04V93.16
		c0.29-5.02,4.63-9.01,9.97-9.01c4.73,0,9.38,0,9.38,0l0.34-18.86c0,0-6.29,0-9.72,0C249.72,65.29,243.86,65.73,238.02,67.81z"/>
</g>
<g>
	<path class="st1" d="M608.25,153.45l-9.42,21.48h-3.04l-9.45-21.48h3.31l7.74,17.64l7.79-17.64H608.25z"/>
	<path class="st1" d="M628.74,172.27v2.67h-17.95v-2.09l13.5-16.72H611v-2.67h17.34v2.09l-13.44,16.73H628.74z"/>
	<path class="st1" d="M664.75,153.45l-7.18,21.48h-3.22l-5.86-17.15l-5.86,17.15h-3.28l-7.18-21.48h3.16l5.8,17.46l6.05-17.46h2.82
		l5.92,17.55l5.92-17.55H664.75z"/>
</g>
</svg>
